<svg viewBox="0 0 800 400" xmlns="http://www.w3.org/2000/svg">
  <rect x="20" y="50" width="220" height="300" rx="10" fill="#FFE0F0" stroke="#CC0066" stroke-width="2"/>
  <text x="35" y="80" font-family="Arial" font-size="14" font-weight="bold" fill="#CC0066">INTELLIGENCE (External)</text>
  <rect x="40" y="110" width="180" height="60" rx="5" fill="#FFF" stroke="#CC0066"/>
  <text x="50" y="145" font-family="Arial" font-size="12">Worker: ChatGPT</text>
  
  <path d="M 240 200 L 300 200" stroke="#666" stroke-width="2" stroke-dasharray="5,5" marker-end="url(#arrowhead)"/>
  <rect x="310" y="20" width="220" height="360" rx="10" fill="#E0F0FF" stroke="#0066CC" stroke-width="3"/>
  <text x="325" y="50" font-family="Arial" font-size="14" font-weight="bold" fill="#0066CC">REVEILA CONTROL PLANE</text>
  
  <rect x="330" y="80" width="180" height="50" rx="5" fill="#FFF" stroke="#0066CC"/>
  <text x="340" y="110" font-family="Arial" font-size="12">Auditor: Gemini 1.5</text>
  
  <rect x="330" y="150" width="180" height="50" rx="5" fill="#FFF" stroke="#0066CC"/>
  <text x="340" y="180" font-family="Arial" font-size="12">Flight Recorder (S3)</text>
  
  <rect x="330" y="220" width="180" height="50" rx="5" fill="#FFF" stroke="#0066CC"/>
  <text x="340" y="250" font-family="Arial" font-size="12">Docker Orchestrator</text>

  <path d="M 530 245 L 590 245" stroke="#333" stroke-width="2" marker-end="url(#arrowhead)"/>
  <rect x="600" y="100" width="180" height="200" rx="10" fill="#E0FFE0" stroke="#008000" stroke-width="2"/>
  <text x="615" y="130" font-family="Arial" font-size="14" font-weight="bold" fill="#008000">GUARDED RUNTIME</text>
  <rect x="615" y="160" width="150" height="100" rx="5" fill="#FFF" stroke="#008000"/>
  <text x="625" y="200" font-family="Arial" font-size="12">Ephemeral Container</text>
  <text x="625" y="220" font-family="Arial" font-size="11" fill="#666">(Hardware Isolated)</text>

  <defs>
    <marker id="arrowhead" markerWidth="10" markerHeight="7" refX="0" refY="3.5" orient="auto">
      <polygon points="0 0, 10 3.5, 0 7" />
    </marker>
  </defs>
</svg>